<?xml version="1.0" standalone="no"?><!DOCTYPE svg PUBLIC "-//W3C//DTD SVG 1.1//EN" "http://www.w3.org/Graphics/SVG/1.1/DTD/svg11.dtd"><svg class="icon" width="500px" height="500.00px" viewBox="0 0 1024 1024" version="1.1" xmlns="http://www.w3.org/2000/svg"><path d="M725.333333 127.04a106.666667 106.666667 0 0 1 106.666667 106.666667v642.826666l-282.666667-204.053333-37.333333-27.146667-37.333333 27.093334-282.666667 204.106666V233.706667a106.666667 106.666667 0 0 1 106.666667-106.666667h426.666666m0-64H298.666667a170.666667 170.666667 0 0 0-170.666667 170.666667v684.533333a42.666667 42.666667 0 0 0 42.666667 42.666667 41.973333 41.973333 0 0 0 24.8-8.106667L512 724.373333l316.373333 228.48a41.973333 41.973333 0 0 0 24.8 8.106667 42.666667 42.666667 0 0 0 42.666667-42.666667V233.706667a170.666667 170.666667 0 0 0-170.666667-170.666667z" fill="#333333" /></svg>