<?xml version="1.0" standalone="no"?><!DOCTYPE svg PUBLIC "-//W3C//DTD SVG 1.1//EN" "http://www.w3.org/Graphics/SVG/1.1/DTD/svg11.dtd"><svg class="icon" width="500px" height="500.00px" viewBox="0 0 1024 1024" version="1.1" xmlns="http://www.w3.org/2000/svg"><path d="M883.712 22.528H140.288C69.12 22.528 11.776 79.872 11.776 151.04v507.904c0 70.656 57.856 128.512 128.512 128.512h392.704l201.216 201.216c8.192 8.192 19.456 12.288 30.208 12.288 10.752 0 22.016-4.096 30.208-12.288 16.896-16.896 16.896-44.032 0-60.416l-205.312-205.312c-13.312-13.312-37.376-20.992-56.832-20.992H126.976c-23.552 0-36.864-18.944-36.864-43.008v-517.12c0-23.552 18.944-43.008 43.008-43.008h760.32c23.552 0 43.008 18.944 43.008 43.008v517.12c0 23.552-18.944 43.008-43.008 43.008h-106.496c-23.552 0-43.008 18.944-43.008 43.008 0 23.552 18.944 43.008 43.008 43.008h97.28c70.656 0 128.512-57.856 128.512-128.512V151.04c-0.512-70.656-58.368-128.512-129.024-128.512z" fill="#333333" /></svg>