<?xml version="1.0" standalone="no"?><!DOCTYPE svg PUBLIC "-//W3C//DTD SVG 1.1//EN" "http://www.w3.org/Graphics/SVG/1.1/DTD/svg11.dtd"><svg class="icon" width="500px" height="500.00px" viewBox="0 0 1024 1024" version="1.1" xmlns="http://www.w3.org/2000/svg"><path d="M512 512m-512 0a512 512 0 1 0 1024 0 512 512 0 1 0-1024 0Z" fill="#E1E6EE" /><path d="M566.698667 576c92.586667 0 168.021333 66.304 169.301333 148.821333v9.685334c0 33.493333-75.52 33.493333-169.301333 33.493333h-109.397334c-93.44 0-169.301333 0-169.301333-33.493333v-9.685334c1.28-82.517333 76.714667-148.821333 169.301333-148.821333zM512 256a128 128 0 1 1 0 256 128 128 0 0 1 0-256z" fill="#A3ADC2" /></svg>