<?xml version="1.0" standalone="no"?><!DOCTYPE svg PUBLIC "-//W3C//DTD SVG 1.1//EN" "http://www.w3.org/Graphics/SVG/1.1/DTD/svg11.dtd"><svg class="icon" width="500px" height="500.00px" viewBox="0 0 1024 1024" version="1.1" xmlns="http://www.w3.org/2000/svg"><path d="M359.944 64.076H189.987c-68.57 0-125.998 56.888-125.998 125.46v169.956c0 68.57 57.427 123.117 125.998 123.117h292.535V189.536c0-68.571-54.007-125.46-122.578-125.46z m61.18 357.134H189.986c-34.286 0-63.576-27.433-63.576-61.718V189.536c0-34.286 29.29-63.038 63.576-63.038h169.956c34.286 0 61.18 28.752 61.18 63.038V421.21zM836.65 64.076H666.693c-68.57 0-125.843 56.888-125.843 125.46v293.073h295.8c68.57 0 122.732-54.547 122.732-123.117V189.536c0-68.571-54.161-125.46-122.732-125.46z m60.31 295.416c0 34.285-26.025 61.718-60.31 61.718H602.248V189.536c0-34.286 30.16-63.038 64.445-63.038H836.65c34.286 0 60.31 28.752 60.31 63.038v169.956zM63.99 666.242v169.956c0 68.57 57.426 123.271 125.997 123.271h169.956c68.57 0 122.579-54.7 122.579-123.271v-295.26H189.987c-68.57 0-125.998 56.733-125.998 125.304z m357.133 169.957c0 34.286-26.894 60.85-61.18 60.85H189.987c-34.286 0-63.576-26.564-63.576-60.85V666.242c0-34.286 29.29-63.907 63.576-63.907h231.136V836.2zM836.65 540.937h-295.8v295.26c0 68.571 57.272 123.272 125.843 123.272H836.65c68.57 0 122.732-54.7 122.732-123.271V666.242c0.001-68.57-54.16-125.305-122.731-125.305zM896.96 836.2c0 34.286-26.025 60.85-60.31 60.85H666.693c-34.286 0-64.445-26.564-64.445-60.85V602.335H836.65c34.286 0 60.31 29.621 60.31 63.907v169.957z"  /></svg>