<?xml version="1.0" standalone="no"?><!DOCTYPE svg PUBLIC "-//W3C//DTD SVG 1.1//EN" "http://www.w3.org/Graphics/SVG/1.1/DTD/svg11.dtd"><svg class="icon" width="500px" height="500.00px" viewBox="0 0 1024 1024" version="1.1" xmlns="http://www.w3.org/2000/svg"><path d="M156.091 606.57a457.597 457.597 0 0 1 221.68-392.516 50.844 50.844 0 1 1 50.845 86.943A355.909 355.909 0 0 0 289.81 453.529h16.779a152.532 152.532 0 1 1-152.532 152.533z m406.753 0a457.597 457.597 0 0 1 221.68-392.008 50.844 50.844 0 1 1 50.844 86.943 355.909 355.909 0 0 0-138.804 152.533h16.779A152.532 152.532 0 1 1 560.81 606.57z" /></svg>