<?xml version="1.0" standalone="no"?><!DOCTYPE svg PUBLIC "-//W3C//DTD SVG 1.1//EN" "http://www.w3.org/Graphics/SVG/1.1/DTD/svg11.dtd"><svg class="icon" width="500px" height="500.00px" viewBox="0 0 1024 1024" version="1.1" xmlns="http://www.w3.org/2000/svg"><path d="M512 19.228444A41.927111 41.927111 0 1 1 512 102.968889 409.031111 409.031111 0 1 0 921.088 512a41.927111 41.927111 0 1 1 83.683556 0A492.828444 492.828444 0 1 1 512 19.228444z m253.667556 209.521778a41.187556 41.187556 0 0 1 58.538666-57.856l72.135111 72.135111a55.637333 55.637333 0 0 1 0 78.791111l-72.135111 72.135112a41.187556 41.187556 0 0 1-58.197333-58.197334l12.174222-12.174222h-53.134222c-144.384 0-193.422222 61.44-193.422222 247.466667a41.073778 41.073778 0 1 1-82.318223 0c0-230.001778 83.911111-329.784889 275.740445-329.784889h53.134222l-12.515555-12.515556z" fill="#333333" /></svg>