<?xml version="1.0" standalone="no"?><!DOCTYPE svg PUBLIC "-//W3C//DTD SVG 1.1//EN" "http://www.w3.org/Graphics/SVG/1.1/DTD/svg11.dtd"><svg class="icon" width="500px" height="500.00px" viewBox="0 0 1024 1024" version="1.1" xmlns="http://www.w3.org/2000/svg"><path d="M512 512m-477.44 0a477.44 477.44 0 1 0 954.88 0 477.44 477.44 0 1 0-954.88 0Z" fill="#FFFFFF" /><path d="M512 512m-455.7 0a455.7 455.7 0 1 0 911.4 0 455.7 455.7 0 1 0-911.4 0Z" fill="#999999" /><path d="M512 517.83c-41.78 0-81.06-16.27-110.6-45.81-29.54-29.54-45.81-68.82-45.81-110.6s16.27-81.06 45.81-110.6c29.54-29.54 68.82-45.81 110.6-45.81s81.06 16.27 110.6 45.81c29.54 29.54 45.81 68.82 45.81 110.6s-16.27 81.06-45.81 110.6c-29.54 29.54-68.82 45.81-110.6 45.81z m0-255.66c-54.73 0-99.26 44.53-99.26 99.26s44.53 99.26 99.26 99.26 99.26-44.53 99.26-99.26-44.53-99.26-99.26-99.26zM733.93 818.99c-15.78 0-28.58-12.79-28.58-28.58 0-106.62-86.74-193.36-193.36-193.36s-193.36 86.74-193.36 193.36c0 15.78-12.79 28.58-28.58 28.58-15.78 0-28.58-12.79-28.58-28.58 0-33.81 6.63-66.62 19.7-97.52 12.62-29.83 30.68-56.62 53.67-79.62 23-23 49.78-41.06 79.62-53.67 30.9-13.07 63.71-19.7 97.52-19.7s66.62 6.63 97.52 19.7c29.83 12.62 56.62 30.68 79.62 53.67 23 23 41.06 49.78 53.67 79.62 13.07 30.9 19.7 63.71 19.7 97.52 0.02 15.78-12.77 28.58-28.56 28.58z" fill="#FFFFFF" /></svg>