<?xml version="1.0" standalone="no"?><!DOCTYPE svg PUBLIC "-//W3C//DTD SVG 1.1//EN" "http://www.w3.org/Graphics/SVG/1.1/DTD/svg11.dtd"><svg class="icon" width="500px" height="500.00px" viewBox="0 0 1024 1024" version="1.1" xmlns="http://www.w3.org/2000/svg"><path d="M184.665 962.129a506.247 506.247 0 1 1 662.148-6.444c-73.98-29.339-172.584-57.528-197.666-67.768a92.965 92.965 0 0 0-17.374-11.505v-61.325c29.8-26.693 44.987-89.514 58.334-132.89a73.406 73.406 0 0 0 39.234-51.775c8.514-34.517-2.416-65.928-24.507-73.291 21.055-69.84 9.895-120.234 0-145.661-3.682-8.054-10.585-18.985-12.196-22.206s-0.575-0.575-0.92-0.92l-1.15-2.187a143.935 143.935 0 0 0-48.9-55.457 42.686 42.686 0 0 0-9.09-5.522 153.715 153.715 0 0 0-37.738-14.382 204.11 204.11 0 0 0-32.215-7.134c-9.435-1.496-17.604-2.416-23.817-2.876a48.439 48.439 0 0 0-10.24-0.576h-2.646c-72.6-4.257-110.8 26.808-126.562 45.102-1.61 1.611 2.301 3.107 1.036 4.603l-5.523 3.681a53.846 53.846 0 0 0-9.895 5.408c-9.78 2.876-39.35 17.604-53.846 90.434a202.96 202.96 0 0 0 7.248 109.073c-21.285 8.17-31.64 39.925-23.011 73.636 6.788 27.154 23.702 47.634 41.88 53.156 13.462 42.11 30.605 103.55 59.254 129.669v60.864a93.196 93.196 0 0 0-17.258 11.506c-27.614 10.815-139.333 43.261-214.58 74.787z"  /><path d="M184.665 962.129a506.247 506.247 0 1 1 662.148-6.444c-73.98-29.339-172.584-57.528-197.666-67.768a92.965 92.965 0 0 0-17.374-11.505v-61.325c29.8-26.693 44.987-89.514 58.334-132.89a73.406 73.406 0 0 0 39.234-51.775c8.514-34.517-2.416-65.928-24.507-73.291 21.055-69.84 9.895-120.234 0-145.661-3.682-8.054-10.585-18.985-12.196-22.206s-0.575-0.575-0.92-0.92l-1.15-2.187a143.935 143.935 0 0 0-48.9-55.457 42.686 42.686 0 0 0-9.09-5.522 153.715 153.715 0 0 0-37.738-14.382 204.11 204.11 0 0 0-32.215-7.134c-9.435-1.496-17.604-2.416-23.817-2.876a48.439 48.439 0 0 0-10.24-0.576h-2.646c-72.6-4.257-110.8 26.808-126.562 45.102-1.61 1.611 2.301 3.107 1.036 4.603l-5.523 3.681a53.846 53.846 0 0 0-9.895 5.408c-9.78 2.876-39.35 17.604-53.846 90.434a202.96 202.96 0 0 0 7.248 109.073c-21.285 8.17-31.64 39.925-23.011 73.636 6.788 27.154 23.702 47.634 41.88 53.156 13.462 42.11 30.605 103.55 59.254 129.669v60.864a93.196 93.196 0 0 0-17.258 11.506c-27.614 10.815-139.333 43.261-214.58 74.787z"  /></svg>