<?xml version="1.0" standalone="no"?><!DOCTYPE svg PUBLIC "-//W3C//DTD SVG 1.1//EN" "http://www.w3.org/Graphics/SVG/1.1/DTD/svg11.dtd"><svg class="icon" width="500px" height="500.00px" viewBox="0 0 1024 1024" version="1.1" xmlns="http://www.w3.org/2000/svg"><path d="M581.12 280.064h276.48c18.944 0 34.816-15.36 34.816-34.304s-15.36-34.816-34.304-34.816h-276.48c-18.944 0-34.816 15.36-34.816 34.816s15.36 34.304 34.304 34.304z" fill="#040000" /><path d="M857.6 317.44H499.712c-6.144-20.48-11.776-41.472-16.896-62.976-17.92-73.216-26.624-110.08-61.952-110.08H166.4c-55.808 0-100.864 53.248-100.864 118.272v518.144c0 65.536 45.056 118.272 100.864 118.272h691.2c55.808 0 101.376-53.248 101.376-118.272V435.712c-0.512-65.024-45.568-118.272-101.376-118.272z m36.864 463.872c0 29.696-16.896 54.784-36.864 54.784h-691.2c-19.968 0-36.864-25.088-36.864-54.784V263.168c0-29.696 16.896-54.272 36.864-54.272H404.48c5.12 14.848 11.776 41.984 16.384 60.928 17.92 74.24 27.136 111.616 62.464 111.616h374.272c19.968 0 36.864 25.088 36.864 54.272v345.6z" fill="#040000" /></svg>